<svg width="25" height="21" viewBox="0 0 25 21" fill="none" xmlns="http://www.w3.org/2000/svg">
<path fill-rule="evenodd" clip-rule="evenodd" d="M19.4944 3.69268C19.03 3.06517 17.7878 2.18319 15.776 2.56365C14.6023 2.78476 13.9009 3.32951 13.4549 4.04844C12.9799 4.8143 12.7496 5.85562 12.7496 7.06741C12.7496 7.39502 12.611 7.70922 12.3642 7.94087C12.1175 8.17253 11.7828 8.30267 11.4338 8.30267C8.32061 8.30267 5.35741 7.43429 2.86396 5.08605C2.67571 6.03881 2.60156 7.00834 2.6429 7.97657C2.71264 9.31806 3.05343 10.6633 3.86266 11.8158C4.65872 12.9485 5.96795 13.9861 8.15745 14.6383C8.372 14.7022 8.5655 14.8167 8.71945 14.9708C8.87341 15.125 8.98267 15.3136 9.03679 15.5187C9.09092 15.7238 9.08809 15.9385 9.02859 16.1423C8.96909 16.3461 8.8549 16.5322 8.69693 16.6827C7.9956 17.358 7.20075 17.9417 6.33374 18.4182C7.7285 18.5541 9.07325 18.564 10.3206 18.4578C12.847 18.2428 14.8589 17.5647 16.1168 16.6049C18.7655 14.5889 20.1826 11.5823 19.9195 6.5449C19.8747 5.71727 20.726 4.82418 21.1366 4.14602C20.5168 4.25472 19.8958 4.23496 19.4944 3.69268ZM2.09553 1.21598C2.33376 1.18999 2.57502 1.22562 2.79325 1.31902C3.01148 1.41242 3.19836 1.56003 3.3337 1.74591C5.27583 4.41284 7.60744 5.5221 10.1956 5.77409C10.322 4.73524 10.6206 3.70874 11.1825 2.80453C12.0062 1.47786 13.3457 0.502001 15.2589 0.141305C17.9036 -0.357741 19.9168 0.541529 21.0839 1.64215L23.4419 1.22833C23.6886 1.18493 23.9434 1.2087 24.1762 1.29683C24.4091 1.38496 24.6102 1.53377 24.7558 1.72571C24.9015 1.91765 24.9856 2.1447 24.9983 2.38006C25.011 2.61543 24.9517 2.84929 24.8274 3.05405L22.5642 6.78701C22.7708 12.174 21.176 15.9341 17.776 18.5245C15.9733 19.8981 13.3917 20.6775 10.5588 20.9184C7.7035 21.1605 4.47582 20.8678 1.26788 19.9882C0.993791 19.9132 0.753141 19.7565 0.582251 19.5417C0.41136 19.327 0.319504 19.0659 0.320544 18.7979C0.321584 18.5299 0.415463 18.2694 0.588015 18.0559C0.760567 17.8423 1.00243 17.6873 1.27709 17.6141C2.89027 17.183 4.11924 16.8112 5.22846 16.1602C3.65081 15.3745 2.48895 14.3468 1.66657 13.1758C0.524453 11.5477 0.100763 9.73187 0.0165512 8.09515C-0.0676605 6.45843 0.183659 4.94153 0.449452 3.84832C0.60077 3.22452 0.777088 2.59947 1.02051 2.00161C1.10638 1.79086 1.25209 1.60622 1.44184 1.46772C1.63158 1.32922 1.8568 1.24216 2.09553 1.21598Z" fill="white"/>
</svg>
